<?xml version="1.0" encoding="UTF-8"?>
<svg id="Layer_1" xmlns="http://www.w3.org/2000/svg" version="1.1" viewBox="0 0 1024 1024">
  <!-- Generator: Adobe Illustrator 30.1.0, SVG Export Plug-In . SVG Version: 2.1.1 Build 136)  -->
  <defs>
    <style>
      .st0 {
        fill: #84a338;
      }

      .st1 {
        fill: #ce513c;
      }

      .st2 {
        fill: #050303;
      }

      .st3 {
        fill: #fefefe;
      }

      .st4 {
        fill: #efb43f;
      }

      .st5 {
        fill: #21a9bf;
      }
    </style>
  </defs>
  <path class="st1" d="M512,150.2c-200.6,0-363.3,162.7-363.3,363.3h363.3V150.2Z"/>
  <path class="st5" d="M512,150.2v363.3h363.3c0-200.6-162.7-363.3-363.3-363.3Z"/>
  <path class="st0" d="M512,513.5v363.3c200.6,0,363.3-162.7,363.3-363.3h-363.3Z"/>
  <path class="st4" d="M148.7,513.5c0,200.6,162.7,363.3,363.3,363.3v-363.3H148.7Z"/>
  <path class="st3" d="M485.6,579.7c-23.6-5-39.3-17.7-53.1-43.1-23.3-43-25.7-117.1-5.3-168.4,3.7-9.3,13-25.1,19.3-32.7,24.7-30,61.7-34.6,85.5-10.7,10.6,10.6,18.1,23.2,24.9,41.3,8.2,22,11.9,43.3,12.9,74.1,1.5,45.1-7.1,83.5-24.4,109.4-5.8,8.6-16.2,18.9-23.3,23.1-10,5.9-26.7,9.1-36.3,7.1Z"/>
  <path class="st3" d="M532.2,538.4c13.1-6.6,22.3-22.8,27.6-48.7,3-14.8,3.8-47.1,1.5-62.6-4.2-28.4-12.3-45.4-25-52.8-10.5-6-23.9-3.3-32.3,6.6-5.4,6.3-11.6,19.7-14.8,31.9-2.2,8.4-2.7,13-2.8,24.4l-.2,14.1,14.1,8.2c7.7,4.5,14.2,8.5,14.3,9,.1.4-6.1,4.8-13.8,9.7-16.3,10.3-15.7,9-11.6,25.3,4.5,17.7,11.8,28.8,22.6,34.2,8.1,4.1,13.2,4.2,20.4.6Z"/>
  <path class="st3" d="M648.6,568.3c-16.8-5.2-30.1-17.6-40.9-38.3-13.4-25.5-20.1-64-17.8-101.1,4.3-67.6,30.2-113.2,67.2-118.5,37.8-5.4,69.9,38.9,77.1,106.4,5.7,54.3-4.3,101.1-27.9,130.6-15.4,19.1-37.5,27.2-57.7,20.9Z"/>
  <path class="st3" d="M700.4,533.6c4.4-2.3,12.8-11.3,15.5-16.7,14.3-28.7,17.6-72.7,8.4-109.5-2.8-11-8.5-23.1-13.3-28.1-5.8-6.1-11-8.4-19-8.4-11.9,0-19.8,6.2-27,21.4-6.7,14.1-9.7,28.1-9.9,44.9v14c-.1,0,8.2,4.9,8.2,4.9,4.6,2.7,10.8,6.3,13.9,8.1l5.5,3.1-12.1,8.1c-6.7,4.5-12.8,8.3-13.6,8.7-2.1.8-1.9,6.8.7,16.6,6.1,23.3,19.6,37.3,34.3,35.4,2.6-.3,6.4-1.5,8.5-2.5Z"/>
  <path class="st2" d="M543.3,883.7c-11.3.9-42.7,1-54.2.3-48.6-3.2-99-17.1-144.6-39.9-67.6-33.8-127.1-91.1-161.4-155.4-16.9-31.7-26.7-57.3-34.9-91-8.1-33.2-12.3-71.6-11.2-101,2.7-71.2,22.9-135.5,60.1-191,35.5-52.9,85.6-96.1,147.4-127,20.5-10.2,37.1-16.7,63.6-24.6,34.7-10.4,66.3-14.6,108-14.6,38.6,0,66.5,3.6,100.6,12.8,41.5,11.2,78.2,28.1,113.4,52.2,49.4,33.9,91.5,82.3,118.5,136.1,18.8,37.4,31.8,81,37.2,124.1,2,16.4,1.7,76-.5,92-2.3,16.5-7,39-11.6,55.9-11.2,40.9-36.3,90.6-62.9,124.4-37.6,48-79.6,82.5-132.2,108.7-19.9,9.9-29.2,13.7-51.2,21-26.6,8.8-56.7,14.8-84.2,17ZM430.1,858.7l11,2.8.6-4.7c1-7.6,4.3-11.1,10.5-11.1h2.6l-.7-7.8c-1-11.2,2.6-20.2,8-20.2s3.8,1.3,5.5,6.5c1.3,4,12.6,22.1,15.1,24.2.8.6,3.5,1.7,6,2.3,6,1.5,7.8.5,11.6-6.3,3.4-6,5.2-7.5,14.3-11.2,6-2.5,7-2.6,16.5-2,9.9.6,10.2.6,16.2-2.4,8.2-4.1,12.9-4.1,17.7,0,3.1,2.8,3.9,3,6.1,2,3.5-1.6,8-1.4,11.6.5,2.2,1.2,4.5,1.5,8,1,4.3-.5,5.8-.1,11.8,2.9,7.9,4,11.6,8.2,12.6,14.3.7,4.2.8,4.2,3.8,3.6,12.2-2.6,40.7-14.6,60.8-25.4,35.5-19.2,61.2-38.4,88.9-66.6,19.1-19.5,19.5-20.2,20.2-28.9.4-5.3,1.6-9.5,4.7-16.5,2.3-5.2,4.6-10.9,5.1-12.7,3.2-10.7,6.7-15.9,18.2-27.5,11.1-11.2,13.5-12.8,18.6-12.4,2.1.2,3-1.3,8.8-14.8,17.9-41.3,25.9-78.1,27-124.3l.6-25.3-7.4,7.4c-7.6,7.5-19.1,15.2-24.4,16.3l-3,.6-3.8-13.2c-2.9-9.9-6.3-18.3-13.7-33.4-13.7-27.9-27-47.5-27-39.7s4.7,12.2,9.9,21c2.2,3.7,4.9,10.3,6.2,14.7,1.2,4.4,3,9.6,3.9,11.5,5.6,11.5,12.6,23.9,15,26.5,4.7,5.2,8.1,11,8.1,13.7s.5,3.8,1,5.3c.9,2.5,1.3,2.6,5.2,2,2.3-.4,7.2-2,10.9-3.6,10.7-4.7,13.6-4,15,3.6.9,4.9.4,10-2.7,23.8-2.6,12.1-9.9,24.6-21.9,37.7-20.3,22.1-26,33.5-29,58.5-1.9,16.1-2.8,20-5.9,26.7-3.5,7.7-6,10.8-15.9,19.4-10.5,9.1-14,14.2-16.1,23.7-2.1,9.3-3.5,11.7-9.7,16.9-2.9,2.4-10.5,10.7-16.9,18.4-13.1,15.8-17.6,19.4-32.8,26-15.9,7-25.5,8-32.9,3.5-5.2-3.2-6-7.8-2.9-17.5,2.2-6.9,2.4-8.5,1.4-12.1-.9-3.2-.8-6.6.2-14.3,1-7.3,1.1-13.2.5-21.4-1.7-22.2-.8-27.1,8.1-41.4,12.8-20.6,13.2-24.7,5.2-48.4-7.7-22.7-7.7-23.3-3.7-33.7,4-10.4,3.6-11.4-6-18-6.4-4.4-6.4-4.4-10-2.9-4.8,2-17.4,3.8-21.9,3.1-26.3-4.2-44.6-18.6-58.3-45.7-5.2-10.4-11.3-28.8-13.4-40.5-.9-5.1-2-9-2.4-8.8-.4.2-1,3.2-1.4,6.6-.9,8.6-6,27.4-10.7,39.3-11.3,28.9-32.5,50-56.5,56.2-9,2.4-25.5,2.3-34.4,0-7.3-2-16.1-6.2-24.1-11.6-7-4.7-19.6-17.9-24.5-25.6-4.5-7.1-11.8-22.4-14.9-31.4-8.2-23.9-12.2-62.3-9.6-92,5.6-62,32-107.3,70.2-120.6,14.7-5.1,37.4-4.3,49.2,1.7,20.3,10.3,36.8,32.2,46.6,61.5,3.6,10.8,8.4,29.5,9.3,36.3.2,1.4,1.1-2.2,2.1-8s3.1-14.5,4.8-19.3c2.9-8.4,3-9.3,2.3-19.1l-.7-10.3,2.8-2.2c1.5-1.2,3.7-2.2,4.9-2.2,1.2,0,2.6-.3,3.2-.8.9-.6,10.3-14.3,11.2-16.4.2-.4-1.1-2-2.8-3.5-5.1-4.5-3.6-6.1,9.5-10.2,8.5-2.7,13.3-6.6,17.7-14.6,3-5.3,3.9-6.2,8.6-8,4.3-1.6,5.2-2.4,4.8-4-.3-1.1-1-4.1-1.7-6.8-1.1-4.3-1-5,.8-7.5,3.6-4.8,5-4.1,7.3,3.7,2.2,7.5,3.6,9.4,2.5,3.6-.5-2.7-.3-3.6,1-4.1,2.3-.9,2-1.9-1.4-6.9-4.4-6.5-6.3-7.2-10.5-4-6.5,5-11.4,3.1-15.6-5.8-4.4-9.2-4-12,2.4-18.6,2.9-3,6.3-7.8,7.4-10.5,8-18.9,8.3-19.3,15.9-22.7,5.5-2.4,16.7-2.8,21-.6,1.6.8,7.6,2.7,13.3,4.1,14.4,3.7,19,5.8,19,8.8s-1.8,4.8-5.5,4.8-3.1.4-3,2.1c.3,4.5,8.5,6.7,9.4,2.5.2-1,1.7-3.9,3.3-6.4,1.6-2.5,2.9-4.9,2.9-5.3,0-2.1-20.8-14.8-40.3-24.5-35.6-17.9-79.5-30.8-120.2-35.4-14.8-1.7-56.7-1.7-74,0-13.8,1.3-46.2,6.8-58,9.7-15.3,3.9-40.9,12.8-54.5,19.1-20,9.2-20.5,9.7-23.7,20.3-.9,3-2.4,6.5-3.4,7.8-3,3.8-1.5,5.2,5.3,5.2s6.3-.3,10.5-4c5.5-4.8,9.1-5.2,12.6-1.4,1.4,1.5,3.2,2.4,4.3,2.2,1.9-.4,2-.9.8-7.9-.5-3.1-.2-3.9,2.4-6.1,2.8-2.4,3.9-2.5,18.3-3.1,13.6-.6,15.5-.4,17.2,1.1,2.2,2,7.8,12.8,9.7,18.7.7,2.2,2.6,5.5,4.1,7.3,3.8,4.3,4.4,7.3,2.4,11.2-1.6,3.1-1.8,3.2-6.6,2.7-5.8-.7-7.4.4-8.9,6.3-.6,2.2-2,4.6-3.2,5.4-5,3.5-18.9.6-19.5-4.1-.3-1.8-1.1-2.2-5.9-2.6-5.9-.5-8.7-2.5-7.6-5.6,1.1-3.2,3.6-4.1,11.3-4.1s7.6-.1,9.3-2.9c2-3.4,2.2-8.2.5-9.9-2-2-8.2-1.4-11.9,1.1-1.9,1.2-4.9,4.5-6.7,7.2-1.8,2.7-4.3,5.4-5.6,6-3.6,1.6-7.6,5.2-7.6,6.8s-1.2,2.3-7.2,3.2c-2.9.4-4.8.3-5.2-.4-1.1-1.9-5.5-1.2-10.4,1.5-20.5,11.6-23.5,13.8-25.8,19.1-2.5,5.9-1.8,8.9,3.4,14.4,4.6,5,4.8,5.2,4.9,11.9.1,7.5.7,9,3.2,9s2.6-2.1,4.6-6.6c3.2-7.2,5.2-9.6,10.8-12.5,2.5-1.3,4.5-3.4,6.2-6.7,1.3-2.6,3.9-6.1,5.6-7.7,1.8-1.6,4.2-5.3,5.4-8,2.4-5.4,7.1-10.1,11.2-11.1,3.8-.9,9.9,1.3,12.8,4.7,2.9,3.4,3,3.8,1.6,7.3-1.2,3.2-.4,5.4,2.3,6.1,2.5.6,8.7-1.7,10.6-4,1.7-2,3.5-2,5.5,0,1.4,1.4,1.5,3.1.9,12.1l-.7,10.4,3.6,3.4c4.5,4.2,5.3,7.4,3.8,13.9-2.5,10.3-2.5,11.1.4,15.4,3.3,5,2.8,8.4-1.8,11.2-5.2,3.2-13.1,2-18.7-2.7-3.8-3.2-3.8-5.4.1-9.9,1.7-2,2.8-3.9,2.4-4.3-.4-.4-5.8-.8-12.1-.9-10.6-.2-11.8,0-17.4,2.7-7.5,3.5-8,5.4-1.2,4.5,5.6-.8,8.7,1.2,7.8,4.9-.1.7-.3,1.3-.4,1.9-.9,3.9-1.3,5.5-.7,6.4.5.7,1.6.9,3.6,1.6,5.1,1.7,6,4.1,2.8,8.1-4.7,6-15.1,8.2-22,4.7-4.1-2.1-4.4-2.1-8.6-.5-2.4.9-6.3,3.5-8.6,5.7-7.6,7.2-12.2,10.6-17.7,13.2-6.1,2.9-12,7.9-12,10.2,0,4.5-10.8,16.5-21.5,23.9-9.1,6.3-13.2,10.2-15.6,14.6-.7,1.3-1.6,7.9-2,14.6-.9,14.4-2.5,18.5-7.5,19-4.5.4-5.6-1.6-5.9-11.1-.2-4.5-.9-10-1.7-12.2-1.2-3.4-2.1-4.2-5.6-5.4-3.8-1.2-4.8-1.2-10.6.8-4.9,1.6-6.9,1.9-8.4,1.1-1.1-.6-3.9-1-6.2-1-3.9,0-4.8.5-10,5.9-6.2,6.3-8.4,10.1-11.7,19.9-2.7,7.9-2.9,20.8-.5,25.5,1.5,2.8,5,6.7,6.1,6.7s2.8-2.3,5.7-5c8-7.6,15.6-8.6,17.2-2.4.7,2.6-3.1,16-4.8,17-.4.3-.8,1.5-.8,2.7,0,1.5,1.8,3.5,5.5,6.2,8.2,6,9.7,9.8,8.9,21.9-.7,9.2-.6,9.8,1.6,12.1,2,2.1,3.2,2.5,8.2,2.5s6.8.5,7.8,1c2.5,1.3,4.9,0,11.6-6.3,4.9-4.7,5.6-5,11.7-5.5,5.3-.4,7.2-.2,10.6,1.6,2.2,1.2,5.8,2.1,7.8,2.1,2,0,6.1,1.1,9,2.5,2.9,1.3,8.4,2.9,12.2,3.4,9.1,1.2,15.7,4.9,22.7,12.5,6.9,7.5,9.9,9.5,19.5,13,7.6,2.7,18.5,10.3,22.9,16,3.7,4.6,6.1,11.5,6.8,19.4l.7,7.7,5.5,1.2c3,.7,8.8,3.2,12.8,5.5,6.2,3.6,8.5,4.3,16,5.1,9.6,1,15.8,3.4,25,9.7,11.9,8.1,17.3,17.3,15.9,27.4-.6,4.6-5.2,14-10.3,20.9-4.8,6.5-5.4,8.8-7,24.4-1.5,14.8-2.9,20.5-7.6,29.8-3.3,6.7-6,8.6-16.9,12.2-11.6,3.9-11.6,3.8-12.2,14.7-.4,8.3-.9,10.3-4.5,17.8-2.8,5.9-5.6,10-9.1,13.4-4.5,4.4-5.1,5.5-5.1,9,0,5.9-3.1,10.3-9.1,12.9-4.3,1.8-4.9,2.4-4.3,4.1.4,1.1.8,4.6.8,7.7,0,5,.5,6.1,3.2,9,1.8,1.8,3.5,4.7,3.9,6.3.9,3.9,3,6.2,7.6,8.6,4.1,2.1,6,4.9,5.6,8.1-.3,1.9.8,2.6,7.2,5.1,4.1,1.6,12.5,4.2,18.5,5.7ZM487.7,573.7c9.2,1.9,25.3-1.2,34.8-6.8,6.8-4,16.8-13.8,22.3-22,16.7-24.7,24.9-61.4,23.4-104.4-1-29.4-4.5-49.8-12.4-70.7-6.5-17.3-13.7-29.3-23.8-39.4-22.9-22.9-58.3-18.4-82,10.2-6,7.3-14.9,22.4-18.5,31.3-19.5,49-17.3,119.7,5.1,160.8,13.2,24.2,28.3,36.4,51,41.2ZM371.4,835.2c3.7,3,7.2,5.5,7.9,5.5,3.2,0,.3-6.7-5.2-12-3.7-3.5-3.7-3.5-3-9.7.4-4,.2-7.4-.6-9.6-1.9-5.3,1-10.3,8.3-14.2,3.2-1.7,5.8-3.5,5.8-4.2s-1.4-2.8-3-4.6c-3.5-4-3.8-6.6-1-9.1,1.5-1.4,2.9-1.6,6.3-1.1,4,.6,4.6.4,7.4-2.6,1.7-1.8,4.6-6.2,6.4-9.8,2.7-5.4,3.4-7.9,3.7-15,.6-10.5,2.7-15.1,8.7-18.9,2.4-1.5,7.2-3.4,10.7-4,11.8-2.3,15.3-9.1,16.7-32.7.9-15.6,2.6-20.7,9.4-30.2,10.4-14.2,10.2-21.5-.6-30.1-7.7-6.2-11.6-7.8-22.2-9.5-11.3-1.8-13-2.4-20.7-7.1-5.6-3.5-6.1-3.6-13.1-3.1-8.5.6-13.9-1-15.6-4.8-1.6-3.6-1.5-4.6,1.4-8.4,3.4-4.6,3.2-9.2-.6-16.9-3.6-7.2-7-9.8-18.4-14.2-12.1-4.7-13.3-5.5-22.6-14.5-9.5-9.2-12.3-10.8-22.5-12.4-3.8-.6-8.8-2-11.2-3.1-5.2-2.5-8.3-1.9-11.2,2.2-1.2,1.7-3,3-4,3-2.6,0-5-3.8-5-7.7s-2-4.2-6,1.2c-3.3,4.4-9.6,9.5-11.7,9.5s-.7,1.6.3,5.2c1.9,7.2,1.8,12.4-.6,19.3-2.5,7.4-3.6,9.6-8,16.4-3.5,5.4-3.5,5.6-4.1,19-.3,7.4-.3,15,.1,16.7.4,1.8,2.8,6,5.4,9.4,2.6,3.4,8,13.1,12.2,21.5,8.8,17.9,9.7,19.2,17.4,24.4,3.2,2.2,9.2,6.7,13.3,10,10,8,11.8,11.9,16.3,34.2,2.9,14.3,9.9,39.4,19,67.3,1.1,3.4,3.5,7,7.4,11.1,3.1,3.4,7.4,9,9.5,12.5,6.5,10.8,10.4,15.6,17.3,21.4ZM690.6,776.3c0,3.1,13.8,0,25.6-5.7,10.3-5,19-12.8,29.6-26.5,4.3-5.6,10.1-12.1,12.9-14.4,5.2-4.4,6.8-7.1,8.9-15.5,2.2-8.7,5.8-13.9,17.8-25.1,7.9-7.4,12.1-12.1,13.3-15,1-2.3,3-12.3,4.4-22.1,2.9-20.1,4.9-28.1,9.4-37,3.3-6.5,12.8-18.9,21.6-28.3,11.7-12.4,20.3-28.4,22.4-41.6,1.1-6.9.3-7.3-7.1-4.1-7.4,3.3-10.9,3.9-14.2,2.7-3.9-1.5-6.2-4.7-8.1-11-2.1-7.1-3.9-10.5-8.4-16-5.8-7-9.4-14.2-16.1-32-7.6-20.3-13.3-33-17.4-39.1-1.7-2.5-4.2-6.6-5.7-9-1.4-2.4-3.7-4.9-5-5.5-4.1-1.9-30.6-10.4-32.3-10.4s-1.5.9-1.1,4.8c5.1,56.9-11.5,112.5-40.9,137.5-7.1,6.1-7.3,6.3-5.2,7.7,7.2,4.8,12.6,12.5,12.6,18s-1.3,5.8-3,9.3c-4.5,9.5-4.5,9.6,4.7,35.8,2.2,6.3,2.6,9.3,2.7,19,0,11.3,0,11.6-3.6,19.1-2,4.2-5.2,9.8-7.1,12.5-7.1,10.3-7.2,10.8-6.8,23.4,1,29.8,0,58.5-2.2,63.4-.9,2.1-1.7,4.5-1.7,5.2ZM647.4,562.8c18.6,5.9,38.9-1.7,53.1-20,21.7-28.1,30.9-72.8,25.7-124.7-6.6-64.4-36.1-106.8-70.9-101.6-34.1,5-57.8,48.6-61.8,113.1-2.2,35.4,4,72.1,16.3,96.5,10,19.8,22.2,31.6,37.6,36.6ZM339.1,823.9c5,2.6,9.4,4.8,9.8,4.8,2,0-7.3-14.1-12.8-19.5-7-6.9-6.6-5.9-17.4-41-3.9-12.7-8.6-30.4-10.6-39.5-1.9-9.1-4.2-18.4-5-20.6-1.9-4.9-9.6-12.4-21.4-20.7-8.7-6.2-14.7-13.8-18.5-23.6-2.3-5.9-9.7-19.2-14.5-25.9-6.3-8.8-7.1-12.5-6.8-29.6l.3-15,6.7-12.8c5.6-10.7,6.7-13.6,6.7-17.7,0-6.7-1.9-15-3.6-15.7-.8-.3-2.9.4-4.9,1.6-4.3,2.7-5.3,2.2-13.2-6.2-4.3-4.6-6.4-7.8-7.7-11.8-2.7-8.5-5.8-13-11.2-16.6-8.2-5.4-12.5-9.5-15-14.5-1.7-3.4-3.7-5.5-7.2-7.5-7.1-4.2-16-13-17.8-17.8-1.8-4.8-1.9-6.2-1.2-30.6.3-10.6.2-17.2-.3-15.5-.5,1.6-.9,5.9-1,9.3,0,5.4-.4,6.3-1.9,6-3-.6-3.7-9.4-1.9-21.4,1.9-12,2.2-24.4.5-22.8-1.2,1.2-3.6,10-7.9,28.8-8.2,36.1-10.9,70.8-8.1,104.3,5.7,68.2,25.2,124.5,62.2,179.2,10.8,16,20.7,28.1,36.4,44.7,25.9,27.3,57.3,51.6,87,67.5ZM532.3,534.2c-6.9,3.4-11.9,3.3-19.6-.6-10.4-5.2-17.4-15.8-21.7-32.7-.2-.7-.4-1.4-.5-2-1.6-6.1-2.4-9.2-1.4-11.8,1.1-3.1,4.9-5.2,13.1-10.4,7.4-4.7,13.4-8.8,13.2-9.2-.1-.4-6.3-4.3-13.8-8.6l-13.5-7.8v-13.4c.3-10.9.8-15.3,2.9-23.3,3-11.6,9-24.4,14.2-30.4,8.1-9.4,21-12.1,31-6.3,12.2,7,20,23.2,24,50.4,2.2,14.8,1.5,45.6-1.4,59.7-5,24.7-13.8,40.2-26.4,46.5ZM693.7,529.7c-2,1-5.7,2.1-8.1,2.4-14.1,1.8-27.1-11.5-32.9-33.8-2.4-9.4-2.7-15.1-.7-15.9.8-.3,6.7-4,13.1-8.3l11.6-7.7-5.3-3c-2.9-1.6-8.9-5.1-13.3-7.7l-8-4.7v-13.4c.2-16.1,3.2-29.5,9.6-42.9,6.9-14.5,14.5-20.5,25.9-20.4,7.6,0,12.6,2.2,18.2,8.1,4.6,4.8,10.1,16.3,12.8,26.8,8.9,35.2,5.7,77.1-8,104.5-2.5,5.1-10.6,13.7-14.8,15.9ZM475.5,259.2c-3.7,4.2-6.6,4.5-12.9,1.3-7.1-3.6-8.9-7.9-9-20.8,0-11.2,1-14.3,8.5-26.5,2.9-4.8,3.1-7.2.8-12.1-2-4.1-5.9-6.2-14.3-7.4-17.3-2.5-18.8-5.5-7.2-14,6.9-5,14.8-8.5,23.3-10.1,7-1.4,8.5-.6,6.9,3.5-.6,1.5-.8,3.1-.5,3.6.8,1.3,10.3-3.1,10.8-5,.6-2.3,4.1-2.8,25.2-4.1,13.5-.8,21.1-.8,30.5.1,17,1.7,17.8,2.1,14,9.5-1.8,3.4-1.9,5.1-1.4,12.1l.7,8.2-3.6,3.7c-2.7,2.8-3.6,4.6-3.6,7,0,4.9-3.8,8.7-11.2,11.3-10.6,3.8-21.2,8.2-23.8,10.1-1.4,1-6.6,3.8-11.6,6.3-9.4,4.7-12.2,7.3-16.3,15.4-1.2,2.3-3.6,5.8-5.2,7.8ZM499.1,869.1c12.3,1,35.1,0,57.5-2.4,13.2-1.4,45-7.8,47.7-9.5,5.3-3.5,3.7-8.8-3.8-13-4.2-2.3-5.6-2.6-9.9-2-4.2.6-5.6.3-9.5-1.9l-4.5-2.5-3.4,2c-4.2,2.5-7.4,1.8-11-2.2-3.2-3.6-5.2-3.6-11.9-.3-7.8,4-10,4.3-19.5,3.1-8.6-1.1-8.8-1-14.7,1.8-4.7,2.3-6.7,4-9.2,7.9-3.6,5.7-5.1,8.1-7.3,9.2-1.7.8-3.7.8-7.4.7h-.3c-5.1,0-8.9-.7-11-1.7-3.8-2-8.7-7.5-11.4-12.7-1.1-2.2-2.4-4-2.9-4s-1.1,1.7-1.5,3.8c-.9,5.3-3.2,8.2-6.6,8.2-5.3,0-6.1.8-5.4,5.4.3,2.3.7,4.3.8,4.4.9,1.1,23.1,3.8,45,5.6ZM759.1,413.9c2.7,1.2,5.2,1.6,7.5,1.2,1.9-.3,7.2-.7,11.8-.7h8.3c0-.1,1.5-3.6,1.5-3.6,1.8-4.3,1.5-21.2-.4-23.1-1-1-2.3-.9-6.3.6-4.6,1.6-5.2,1.7-7.4.2-1.7-1.1-3.8-1.4-7.8-1-5,.5-5.7.3-9.9-2.8-4.1-3.1-6.6-7-11.9-18.8-.9-2-5.5-2.4-7-.6-1,1.2-.7,2.5,1.3,6.5,2.5,4.9,2.5,5.2,1,10.1-.9,3.1-2.1,5-2.9,5-1.8,0-1.8,1,0,8.5.8,3.3,1.5,7.4,1.5,9.1,0,3,.3,3.1,8.3,5.4,4.5,1.3,10,3.2,12.2,4.2ZM619.8,307.6c-5.4,1.4-16.6,2.4-17.4,1.5-1.2-1.3-.9-4.1,1.2-10.2,2.8-7.9,2.6-10.3-1.1-13.8-3.9-3.7-6.8-9.9-6.8-14.6,0-4.9,3.6-9.4,6.8-8.4,1.2.4,2.2,1.4,2.2,2.2s1.6,2.4,3.5,3.5c2.1,1.3,3.7,3.1,4.1,4.7.3,1.5,1,3.7,1.5,5,1,2.5,10.6,14.9,13.3,17.1,4,3.3-.4,11.3-7.2,13.1ZM784.7,356.7c6.6,3,12.3,2.5,13.5-1.3.8-2.6-3.6-6.7-16.2-15.2l-8.7-5.8-2,2.7c-2.4,3.3-6.1,3.5-8.5.5-3.3-4.1-7.1-7.8-8.1-7.8s-2,2.6-3.2,5.8c-2.5,6.7-2.1,13.9,1,19.1,2.4,4,5.6,4.1,13.4.6,6.3-2.9,9.4-2.6,18.6,1.6ZM663.1,283.6c.6.9,2.3,1.1,6.2.7,3-.3,8-.9,11.1-1.2,7.3-.8,9.6-2.6,8.8-7.2-.3-1.8-.8-3.9-1.1-4.5-.5-1.4,8.8-14.1,11.4-15.6,2.9-1.6-.9-2.4-5.4-1.2-7.1,2-10.2,1.4-14.1-2.5l-3.5-3.5.7-8.8c.6-7.4.4-9-.9-10.1-3.1-2.6-7.1,4.1-9.1,15.2-.6,3.5-.4,4,4.1,8.2l4.8,4.4-1.2,4c-.7,2.2-1.2,6-1.2,8.4,0,5.1-1.7,7.2-6.8,8.3-2.2.5-3.1,1.2-2.8,2,.3.7,0,1.5-.6,1.7-.7.2-.8.9-.3,1.7ZM415.9,188.2c-7.5,3.8-10.4,4.8-15.5,5-11.9.7-14.7-2.3-8.1-8.8,6.4-6.2,17.5-11.4,28.3-13.3,16.4-2.9,18.2-3,20.4-.6,1.5,1.7,1.7,2.4.7,3.4-1.3,1.3-11,6.7-25.9,14.3ZM833.3,377.7c1.7,1.3,4.1,2,6.9,2,5.5,0,5.5-.8,1-11-1.9-4.1-4-9.1-4.7-11-.7-1.9-3.7-6-6.6-9.1-6.6-6.9-8.9-12.7-7.1-17.7,1.2-3.2,1.1-3.6-1.1-5.4-2.8-2.3-5.7-1.7-8.8,1.8-4.4,4.8-2.1,11.5,7.8,23.3,4.6,5.4,7.3,11.4,8.9,19.3.8,4.1,1.9,6.3,3.7,7.8ZM277.8,485.5c-2.2,1.2-4.3,2.2-4.8,2.2-.5,0-2.2-1.9-3.8-4.2-8.6-12.5-10.7-14.7-15.6-16.2-6.8-2-9-3.4-9-5.6s2.1-3.5,7.1-4.5c4.9-.9,10.7.8,16.8,5,2.8,1.9,5.4,3.5,5.9,3.5,1.7,0,6,5.6,7.2,9.3,1.7,5.3.7,7.9-3.8,10.5ZM563.4,242c-10.2,5.2-16.9,4.2-22.5-3.4-3.9-5.2-4-6.2-1.1-8.9,2.5-2.3,5-2.6,7.8-.8,1.5,1,2.9.9,6.7-.1,8.1-2.3,10.2-2.4,12.8-.6,6.6,4.3,5.2,9.3-3.8,13.9ZM313,493.8c-2,1.6-20.7,2.4-24.1.9-3.4-1.5-5.7-5.5-4.4-7.9,2.1-4,4.1-5.1,8.9-5.1,6.3,0,16.2,2.1,18.9,3.9,2.7,1.8,3,6.1.6,8.1ZM368.2,203.3c-5,3.4-11.9,4.4-12.9,1.9-1.2-3.1-.7-4.6,3.5-9,4.3-4.6,13.7-10,19.5-11.1,4-.8,6.4.8,6.4,4.1s-1.6,4.1-16.5,14.1ZM592.3,300.1c-6,2.5-7.2,2.6-9.4,1.1-1.9-1.4-2.2-2.3-1.8-7.1.3-4.6.9-6.1,3.7-8.9,3.8-3.9,7.5-4.4,11-1.5,1.9,1.5,2.3,2.7,2.1,6.5-.3,6-1.5,8.3-5.6,10ZM858.9,451.5c1.1,1.2,2.2,2.2,2.3,2.2s1.4-1.1,2.8-2.5c4.2-4.2,3-9.4-2.8-11.8-1.8-.8-4.6-3.3-6.2-5.6-5.3-7.8-8.8-11.2-10.7-10.4-1,.4-1.8,1.1-1.8,1.7,0,2,5.2,11.4,8,14.3,1.5,1.6,3.6,4.6,4.5,6.5,1,1.9,2.6,4.5,3.8,5.8ZM808.2,711.8c.3.5.8.9,1,.9,1.1,0,14.5-22.1,17.3-28.3.5-1.2-4.8,2.2-8.2,5.3-4.3,3.9-11.5,19.8-10.1,22.2ZM771.8,331.7c3.5,1.4,5.3.8,5.3-2s-4.8-4.1-6.5-1c-.9,1.8-.8,2.2,1.2,3Z"/>
</svg>